<?xml version="1.0" encoding="UTF-8"?>
<COLLADA xmlns="http://www.collada.org/2005/11/COLLADASchema" version="1.4.1">
<!--
# File generated by ImageToStl.com - Free Image and 3D model conversion tools
-->
  <asset>
    <contributor>
      <author>ImageToStl.com</author>
      <authoring_tool>ImageToStl.com</authoring_tool>
    </contributor>
    <created>2025-07-09T11:25:15</created>
    <modified>2025-07-09T11:25:15</modified>
    <up_axis>Z_UP</up_axis>
  </asset>
  <library_effects>
    <effect id="effect_0">
        <profile_COMMON>
          <technique sid="common">
            <phong>
              <diffuse>
                <color>0.85 0.85 0.85 1</color>
              </diffuse>
              <specular>
                <color>0.05 0.05 0.05 1</color>
              </specular>
              <shininess>
                <float>64</float>
              </shininess>
            </phong>
          </technique>
        </profile_COMMON>
    </effect>
  </library_effects>
  <library_materials>
    <material id="mat_0">
      <instance_effect url="#effect_0"/>
    </material>
  </library_materials>
  <library_geometries>
    <geometry id="geometry_f977c246_663e_4526_b805_3a3af2b47479">
      <mesh>
        <source id="pos_0">
          <float_array id="pos_0-array" count="1998">53 33 5.69999981 53 33 -5.69999981 52.73205185 34 5.69999981 52.73205185 34 -5.69999981 52 34.73205185 5.69999981 52 34.73205185 -5.69999981 51 35 5.69999981 51 35 -5.69999981 53 27 -3.89999986 53 17 -5.69999981 53 25.50753403 -3.60313034 53 24.24228477 -2.75771642 53 30.89999962 0 53 30.60313034 -1.4924655 53 29.75771713 -2.75771642 53 17 5.69999981 53 27 3.89999986 53 28.49246597 3.60313034 53 29.75771713 2.75771642 53 23.09999847 0 53 23.39686966 1.4924655 53 24.24228477 2.75771642 53 23.39686966 -1.4924655 53 25.50753403 3.60313034 53 30.60313034 1.4924655 53 28.49246597 -3.60313034 55 15 5.69999981 55 15 -5.69999981 54 15.2679491 5.69999981 54 15.2679491 -5.69999981 53.26795197 16 5.69999981 53.26795197 16 -5.69999981 114.30000305 15 -5.69999981 127.70000458 15 5.69999981 116.11174011 15 -5.93851948 117.79999542 15 -6.63782215 119.2497406 15 -7.75025272 120.36217499 15 -9.19999981 132.70001221 15 0.69999999 121.06147766 15 -10.88826656 121.30000305 15 -12.69999981 132.70001221 15 -46.254776 121.30000305 15 -41.37757874 121.11131287 15 -42.99188995 131.5302124 15 -49.46871948 120.55542755 15 -44.51917267 119.66231537 15 -45.87709045 97.9414978 15 -89.49820709 89.20859528 15 -82.17041779 129.24508667 15 5.45528221 130.63891602 15 4.74508476 131.74508667 15 3.63892603 132.45527649 15 2.245085 132.56521606 15 -47.4078598 132.16815186 15 -48.49877167 43 -17 2.79999995 35.40000153 -17 2.79999995 43 -17.60000038 2.63923049 35.40000153 -17.60000038 2.63923049 43 -18.03923035 2.20000005 35.40000153 -18.03923035 2.20000005 43 -18.20000076 1.5999999 35.40000153 -18.20000076 1.5999999 35.40000153 -18.20000076 -1.5999999 43 -18.20000076 -1.5999999 35.40000153 -13.80000019 -2.79999995 35.40000153 -17 -2.79999995 35.40000153 -12.60000038 -1.5999999 35.40000153 -13.80000019 2.79999995 35.40000153 -12.60000038 1.5999999 35.40000153 -13.20000076 2.63923049 35.40000153 -12.76076889 2.20000005 35.40000153 -12.76076889 -2.20000005 35.40000153 -13.20000076 -2.63923049 35.40000153 -17.60000038 -2.63923049 35.40000153 -18.03923035 -2.20000005 43 -12.60000038 1.5999999 43 -12.76076889 2.20000005 43 -13.20000076 2.63923049 43 -13.80000019 2.79999995 43 -12.60000038 -1.5999999 43 -13.80000019 -2.79999995 43 -13.20000076 -2.63923049 43 -12.76076889 -2.20000005 43 -18.03923035 -2.20000005 43 -17.60000038 -2.63923049 43 -17 -2.79999995 43 17 -2.79999995 35.40000153 17 -2.79999995 43 17.60000038 -2.63923049 35.40000153 17.60000038 -2.63923049 43 18.03923035 -2.20000005 35.40000153 18.03923035 -2.20000005 43 18.20000076 -1.5999999 35.40000153 18.20000076 -1.5999999 35.40000153 18.20000076 1.5999999 43 18.20000076 1.5999999 35.40000153 13.80000019 2.79999995 35.40000153 12.60000038 1.5999999 35.40000153 12.76076889 2.20000005 35.40000153 13.80000019 -2.79999995 35.40000153 12.60000038 -1.5999999 35.40000153 12.76076889 -2.20000005 35.40000153 13.20000076 -2.63923049 35.40000153 13.20000076 2.63923049 35.40000153 17 2.79999995 35.40000153 17.60000038 2.63923049 35.40000153 18.03923035 2.20000005 43 12.60000038 -1.5999999 43 12.76076889 -2.20000005 43 13.20000076 -2.63923049 43 13.80000019 -2.79999995 43 12.60000038 1.5999999 43 13.80000019 2.79999995 43 13.20000076 2.63923049 43 12.76076889 2.20000005 43 18.03923035 2.20000005 43 17.60000038 2.63923049 43 17 2.79999995 112.03530121 -7.0999999 -57.45576477 110.04359436 -7.0999999 -55.78451538 112.22476196 -6 -57.22997665 110.23304749 -6 -55.55873108 112.03530121 -4.9000001 -57.45576477 110.04359436 -4.9000001 -55.78451538 111.5177002 -4.09474421 -58.07262421 109.52597809 -4.09474421 -56.40137482 110.8106308 -3.79999995 -58.91527176 108.81890869 -3.79999995 -57.24402618 110.1035614 -4.09474421 -59.75792313 108.11184692 -4.09474421 -58.08666992 109.58595276 -4.9000001 -60.37478638 107.59423828 -4.9000001 -58.70353699 109.39649963 -6 -60.60057068 107.40478516 -6 -58.9293251 109.58595276 -7.0999999 -60.37478638 107.59423828 -7.0999999 -58.70353699 110.1035614 -7.90525627 -59.75792313 108.11184692 -7.90525627 -58.08666992 110.8106308 -8.19999981 -58.91527176 108.81890869 -8.19999981 -57.24402618 111.5177002 -7.90525627 -58.07262421 109.52597809 -7.90525627 -56.40137482 111.40151215 -6.77134514 -58.21108246 111.58197021 -6 -57.99602127 110.94458008 -7.18176889 -58.75564575 110.42495728 -7.03923035 -59.37490082 110.08580017 -6.41042423 -59.77909088 110.08580017 -5.58957577 -59.77909088 110.42495728 -4.96076965 -59.37490082 110.94458008 -4.81823063 -58.75564575 111.40151215 -5.22865486 -58.21108246 95.26185608 -6.93890476 -77.4455719 93.27014923 -6.93890476 -75.77432251 94.45807648 -7.43442011 -78.40348816 92.466362 -7.43442011 -76.73223877 93.86486053 -8.41294098 -79.11045837 91.87313843 -8.41294098 -77.43920898 93.59389496 -9.69024563 -79.43338013 91.60218048 -9.69024563 -77.76213074 93.69619751 -11.02586746 -79.3114624 91.7044754 -11.02586746 -77.64022064 94.15249634 -12.16835499 -78.76766205 92.16078186 -12.16835499 -77.09641266 94.87689972 -12.90262127 -77.90435028 92.88517761 -12.90262127 -76.23310852 95.7330246 -13.09042931 -76.88406372 93.74131012 -13.09042931 -75.21281433 96.55969238 -12.69642258 -75.89888 94.56797791 -12.69642258 -74.22763062 97.20127106 -11.79477882 -75.13426971 95.20956421 -11.79477882 -73.46302795 97.5369873 -10.55524349 -74.73419189 95.5452652 -10.55524349 -73.0629425 97.50361633 -9.21117687 -74.7739563 95.51189423 -9.21117687 -73.10270691 97.10745239 -8.01561546 -75.24607849 95.11573792 -8.01561546 -73.57483673 97.68199158 -7.299119 -74.56137085 95.6902771 -7.299119 -72.89012146 97.94709778 -6.23038673 -74.24542999 95.9553833 -6.23038673 -72.5741806 97.83089447 -5.09918785 -74.38391876 95.83918762 -5.09918785 -72.71266937 97.36488342 -4.21223068 -74.93928528 95.37316895 -4.21223068 -73.26803589 96.67542267 -3.81000018 -75.76095581 94.68370056 -3.81000018 -74.08970642 95.94944 -4.00155449 -76.62614441 93.95773315 -4.00155449 -74.95489502 95.38378906 -4.7349577 -77.30027008 93.39206696 -4.7349577 -75.62902069 95.13182068 -5.8113575 -77.60054779 93.1401062 -5.8113575 -75.92930603 97.13163757 -6.77134514 -75.2172699 96.67469025 -7.18176889 -75.76183319 96.49583435 -9.08091068 -75.97498322 96.03050232 -8.45362568 -76.52954102 96.15507507 -7.03923035 -76.38108826 95.42105103 -8.31730366 -77.25585938 95.81591797 -6.41042423 -76.78527069 95.81591797 -5.58957577 -76.78527069 96.15507507 -4.96076965 -76.38108826 96.67469025 -4.81823063 -75.76183319 97.13163757 -5.22865486 -75.2172699 97.31208801 -6 -75.0022049 94.86097717 -8.71522522 -77.92333984 94.5280838 -9.52105427 -78.3200531 94.5280838 -10.47894478 -78.3200531 94.86097717 -11.28477478 -77.92333984 95.42105103 -11.68269634 -77.25585938 96.03050232 -11.54637432 -76.52954102 96.49583435 -10.91908932 -75.97498322 96.66930389 -10 -75.76824951 112.03530121 4.9000001 -57.45576477 110.04359436 4.9000001 -55.78451538 112.22476196 6 -57.22997665 110.23304749 6 -55.55873108 112.03530121 7.0999999 -57.45576477 110.04359436 7.0999999 -55.78451538 111.5177002 7.90525627 -58.07262421 109.52597809 7.90525627 -56.40137482 110.8106308 8.19999981 -58.91527176 108.81890869 8.19999981 -57.24402618 110.1035614 7.90525627 -59.75792313 108.11184692 7.90525627 -58.08666992 109.58595276 7.0999999 -60.37478638 107.59423828 7.0999999 -58.70353699 109.39649963 6 -60.60057068 107.40478516 6 -58.9293251 109.58595276 4.9000001 -60.37478638 107.59423828 4.9000001 -58.70353699 110.1035614 4.09474421 -59.75792313 108.11184692 4.09474421 -58.08666992 110.8106308 3.79999995 -58.91527176 108.81890869 3.79999995 -57.24402618 111.5177002 4.09474421 -58.07262421 109.52597809 4.09474421 -56.40137482 111.58197021 6 -57.99602127 111.40151215 6.77134514 -58.21108246 110.94458008 7.18176889 -58.75564575 110.42495728 7.03923035 -59.37490082 110.08580017 6.41042423 -59.77909088 110.08580017 5.58957577 -59.77909088 110.42495728 4.96076965 -59.37490082 110.94458008 4.81823063 -58.75564575 111.40151215 5.22865486 -58.21108246 97.10745239 8.01561546 -75.24607849 95.11573792 8.01561546 -73.57483673 97.50361633 9.21117687 -74.7739563 95.51189423 9.21117687 -73.10270691 97.5369873 10.55524349 -74.73419189 95.5452652 10.55524349 -73.0629425 97.20127106 11.79477882 -75.13426971 95.20956421 11.79477882 -73.46302795 96.55969238 12.69642258 -75.89888 94.56797791 12.69642258 -74.22763062 95.7330246 13.09042931 -76.88406372 93.74131012 13.09042931 -75.21281433 94.87689972 12.90262127 -77.90435028 92.88517761 12.90262127 -76.23310852 94.15249634 12.16835499 -78.76766205 92.16078186 12.16835499 -77.09641266 93.69619751 11.02586746 -79.3114624 91.7044754 11.02586746 -77.64022064 93.59389496 9.69024563 -79.43338013 91.60218048 9.69024563 -77.76213074 93.86486053 8.41294098 -79.11045837 91.87313843 8.41294098 -77.43920898 94.45807648 7.43442011 -78.40348816 92.466362 7.43442011 -76.73223877 95.26185608 6.93890476 -77.4455719 93.27014923 6.93890476 -75.77432251 95.13182068 5.8113575 -77.60054779 93.1401062 5.8113575 -75.92930603 95.38378906 4.7349577 -77.30027008 93.39206696 4.7349577 -75.62902069 95.94944 4.00155449 -76.62614441 93.95773315 4.00155449 -74.95489502 96.67542267 3.81000018 -75.76095581 94.68370056 3.81000018 -74.08970642 97.36488342 4.21223068 -74.93928528 95.37316895 4.21223068 -73.26803589 97.83089447 5.09918785 -74.38391876 95.83918762 5.09918785 -72.71266937 97.94709778 6.23038673 -74.24542999 95.9553833 6.23038673 -72.5741806 97.68199158 7.299119 -74.56137085 95.6902771 7.299119 -72.89012146 97.13163757 5.22865486 -75.2172699 97.31208801 6 -75.0022049 96.67469025 4.81823063 -75.76183319 96.15507507 4.96076965 -76.38108826 95.81591797 5.58957577 -76.78527069 95.81591797 6.41042423 -76.78527069 95.42105103 8.31730366 -77.25585938 94.86097717 8.71522522 -77.92333984 96.15507507 7.03923035 -76.38108826 96.03050232 8.45362568 -76.52954102 96.67469025 7.18176889 -75.76183319 96.49583435 9.08091068 -75.97498322 97.13163757 6.77134514 -75.2172699 96.66930389 10 -75.76824951 96.49583435 10.91908932 -75.97498322 96.03050232 11.54637432 -76.52954102 95.42105103 11.68269634 -77.25585938 94.86097717 11.28477478 -77.92333984 94.5280838 10.47894478 -78.3200531 94.5280838 9.52105427 -78.3200531 112.6309967 -1.26088369 -56.74584198 110.63928223 -1.26088369 -55.07459641 112.80326843 0 -56.54053497 110.81155396 0 -54.8692894 112.6309967 1.26088369 -56.74584198 110.63928223 1.26088369 -55.07459641 110.1522522 2.30374908 -55.65501785 112.14396667 -2.30374908 -57.32626343 110.1522522 -2.30374908 -55.65501785 111.4263916 -2.94827509 -58.18143845 109.43466949 -2.94827509 -56.51019287 110.6023407 -3.08301783 -59.16349792 108.61062622 -3.08301783 -57.49225235 109.81430817 -2.68467879 -60.10264587 107.82258606 -2.68467879 -58.43139267 109.19854736 -1.82213426 -60.83647919 107.20683289 -1.82213426 -59.1652298 108.86153412 -0.64452624 -61.23811722 106.86981201 -0.64452624 -59.56687164 108.86153412 0.64452624 -61.23811722 106.86981201 0.64452624 -59.56687164 109.19854736 1.82213426 -60.83647919 107.20683289 1.82213426 -59.1652298 109.81430817 2.68467879 -60.10264587 107.82258606 2.68467879 -58.43139267 110.6023407 3.08301783 -59.16349792 108.61062622 3.08301783 -57.49225235 111.4263916 2.94827509 -58.18143845 109.43466949 2.94827509 -56.51019287 112.14396667 2.30374908 -57.32626343 111.90337372 0 -57.61299515 111.72989655 0.91908938 -57.81972885 111.26457214 1.54637444 -58.37429047 110.65512085 1.68269646 -59.10060501 110.09503174 1.2847743 -59.76808167 109.76215363 0.47894534 -60.16479492 109.76215363 -0.47894534 -60.16479492 110.09503174 -1.2847743 -59.76808167 110.65512085 -1.68269646 -59.10060501 111.26457214 -1.54637444 -58.37429047 111.72989655 -0.91908938 -57.81972885 132.29626465 14 -50.1115036 104.00535583 11.68269634 -83.8272934 98.70754242 14 -90.14099121 103.39590454 11.54637432 -84.55361176 98.0647583 13 -90.9070282 102.93057251 10.91908932 -85.10817719 102.75710297 10 -85.31491089 132.29626465 -14 -50.1115036 120.13238525 0.47894534 -64.60785675 119.80873871 5.58957577 -64.99356079 119.80873871 6.41042423 -64.99356079 98.70754242 -14 -90.14099121 104.00535583 -11.68269634 -83.8272934 104.56543732 -11.28477478 -83.15982056 118.94996643 -7.18176889 -66.01700592 104.89831543 -10.47894478 -82.7631073 118.49302673 -6.77134514 -66.56156921 104.89831543 -9.52105427 -82.7631073 105.53885651 -6.41042423 -81.99974823 105.1996994 -7.03923035 -82.40393829 104.56543732 -8.71522522 -83.15982056 104.68008423 -7.18176889 -83.02319336 104.00535583 -8.31730366 -83.8272934 104.2231369 -6.77134514 -83.56774902 103.39590454 -8.45362568 -84.55361176 104.04267883 -6 -83.78281403 102.93057251 -9.08091068 -85.10817719 98.0647583 -13 -90.9070282 102.75710297 -10 -85.31491089 102.93057251 -10.91908932 -85.10817719 98.38614655 -13.86602497 -90.52400208 98.15087128 -13.5 -90.80440521 103.39590454 -11.54637432 -84.55361176 104.2231369 -5.22865486 -83.56774902 104.2231369 5.22865486 -83.56774902 104.04267883 6 -83.78281403 102.93057251 9.08091068 -85.10817719 103.39590454 8.45362568 -84.55361176 98.15087128 13.5 -90.80440521 98.38614655 13.86602497 -90.52400208 118.1646347 -0.91908938 -66.95292664 105.1996994 -4.96076965 -82.40393829 117.99117279 0 -67.15965271 105.1996994 4.96076965 -82.40393829 118.1646347 0.91908938 -66.95292664 105.53885651 5.58957577 -81.99974823 118.49302673 5.22865486 -66.56156921 118.31256866 6 -66.77663422 105.53885651 6.41042423 -81.99974823 118.49302673 6.77134514 -66.56156921 104.89831543 9.52105427 -82.7631073 104.89831543 10.47894478 -82.7631073 118.62997437 -1.54637444 -66.39836121 118.49302673 -5.22865486 -66.56156921 105.53885651 -5.58957577 -81.99974823 118.94996643 -4.81823063 -66.01700592 119.23942566 -1.68269646 -65.67204285 119.46958923 -4.96076965 -65.39775085 119.79949951 -1.2847743 -65.00457001 119.80873871 -5.58957577 -64.99356079 120.13238525 -0.47894534 -64.60785675 119.79949951 1.2847743 -65.00457001 119.46958923 4.96076965 -65.39775085 119.23942566 1.68269646 -65.67204285 118.94996643 4.81823063 -66.01700592 118.62997437 1.54637444 -66.39836121 104.68008423 -4.81823063 -83.02319336 104.68008423 4.81823063 -83.02319336 105.1996994 7.03923035 -82.40393829 104.56543732 8.71522522 -83.15982056 104.68008423 7.18176889 -83.02319336 104.00535583 8.31730366 -83.8272934 104.2231369 6.77134514 -83.56774902 118.31256866 -6 -66.77663422 119.46958923 -7.03923035 -65.39775085 119.80873871 -6.41042423 -64.99356079 118.94996643 7.18176889 -66.01700592 104.56543732 11.28477478 -83.15982056 119.46958923 7.03923035 -65.39775085 133.0617981 -14 -48.9475708 133.0617981 14 -48.9475708 133.53826904 -14 -47.63847351 133.53826904 14 -47.63847351 133.69999695 -14 -46.254776 133.69999695 14 -46.254776 133.69999695 14 0.69999999 133.69999695 -14 0.69999999 133.40634155 -14 2.55410194 133.40634155 14 2.55410194 132.55410767 -14 4.22671127 132.55410767 14 4.22671127 131.22671509 -14 5.55410194 131.22671509 14 5.55410194 129.55410767 -14 6.40633869 129.55410767 14 6.40633869 127.70000458 -14 6.70000029 127.70000458 14 6.70000029 96.65592194 13 -91.0302887 87.92301178 13 -83.70250702 96.82815552 14 -90.82502747 88.09525299 14 -83.49724579 97.29870605 14.7320509 -90.26424408 88.56581116 14.7320509 -82.93647003 87.92301178 -13 -83.70250702 96.65592194 -13 -91.0302887 43 34 6.70000029 52 33 6.70000029 51 34 6.70000029 51.86602783 33.5 6.70000029 51.5 33.86602783 6.70000029 43 -34 6.70000029 52.22835922 15.85194969 6.70000029 52 17 6.70000029 51 -34 6.70000029 52 -33 6.70000029 52 -17 6.70000029 52.22835922 -15.85194969 6.70000029 51.5 -33.86602783 6.70000029 51.86602783 -33.5 6.70000029 52.87868118 -14.87867928 6.70000029 52.87868118 14.87867928 6.70000029 53.85194778 14.22836208 6.70000029 53.85194778 -14.22836208 6.70000029 55 14 6.70000029 55 -14 6.70000029 97.9414978 -15 -89.49820709 89.20859528 -15 -82.17041779 97.29870605 -14.7320509 -90.26424408 88.56581116 -14.7320509 -82.93647003 96.82815552 -14 -90.82502747 88.09525299 -14 -83.49724579 119.66231537 -15 -45.87709045 131.5302124 -15 -49.46871948 120.55542755 -15 -44.51917267 121.11131287 -15 -42.99188995 132.70001221 -15 -46.254776 121.30000305 -15 -41.37757874 121.30000305 -15 -12.69999981 132.70001221 -15 0.69999999 121.06147766 -15 -10.88826656 120.36217499 -15 -9.19999981 127.70000458 -15 5.69999981 119.2497406 -15 -7.75025272 117.79999542 -15 -6.63782215 116.11174011 -15 -5.93851948 114.30000305 -15 -5.69999981 55 -15 5.69999981 55 -15 -5.69999981 132.16815186 -15 -48.49877167 132.56521606 -15 -47.4078598 132.45527649 -15 2.245085 131.74508667 -15 3.63892603 130.63891602 -15 4.74508476 129.24508667 -15 5.45528221 53 -17 5.69999981 53 -17 -5.69999981 53.26795197 -16 5.69999981 53.26795197 -16 -5.69999981 54 -15.2679491 5.69999981 54 -15.2679491 -5.69999981 53 -27 -3.89999986 53 -33 -5.69999981 53 -28.49246597 -3.60313034 53 -29.75771713 -2.75771642 53 -23.09999847 0 53 -23.39686966 -1.4924655 53 -24.24228477 -2.75771642 53 -33 5.69999981 53 -27 3.89999986 53 -25.50753403 3.60313034 53 -24.24228477 2.75771642 53 -30.89999962 0 53 -30.60313034 1.4924655 53 -29.75771713 2.75771642 53 -30.60313034 -1.4924655 53 -28.49246597 3.60313034 53 -23.39686966 1.4924655 53 -25.50753403 -3.60313034 51 -35 5.69999981 51 -35 -5.69999981 52 -34.73205185 5.69999981 52 -34.73205185 -5.69999981 52.73205185 -34 5.69999981 52.73205185 -34 -5.69999981 43 35 -5.69999981 43 35 5.69999981 43 -35 -5.69999981 43 -35 5.69999981 118.89626312 -14 -45.23430252 118.89626312 14 -45.23430252 87.79975891 -13 -82.29368591 87.79975891 13 -82.29368591 88.44254303 14 -81.52763367 87.88587952 13.5 -82.19104767 88.12115479 13.86602497 -81.91065979 88.44254303 -14 -81.52763367 87.88587952 -13.5 -82.19104767 88.12115479 -13.86602497 -81.91065979 49 25.50753403 -3.60313034 49 27 -3.89999986 49 28.49246597 -3.60313034 49 29.75771713 -2.75771642 49 30.60313034 -1.4924655 49 30.89999962 0 49 30.60313034 1.4924655 49 29.75771713 2.75771642 49 28.49246597 3.60313034 49 27 3.89999986 49 25.50753403 3.60313034 49 24.24228477 2.75771642 49 23.39686966 1.4924655 49 23.09999847 0 49 23.39686966 -1.4924655 49 24.24228477 -2.75771642 49 27 -2.20000005 49 28.09999847 -1.90525591 49 28.90525627 -1.10000002 49 29.20000076 0 49 28.90525627 1.10000002 49 28.09999847 1.90525591 49 27 2.20000005 49 25.89999962 1.90525591 49 25.09474564 1.10000002 49 24.79999924 0 49 25.09474564 -1.10000002 49 25.89999962 -1.90525591 49 -28.49246597 -3.60313034 49 -27 -3.89999986 49 -25.50753403 -3.60313034 49 -24.24228477 -2.75771642 49 -23.39686966 -1.4924655 49 -23.09999847 0 49 -23.39686966 1.4924655 49 -24.24228477 2.75771642 49 -25.50753403 3.60313034 49 -27 3.89999986 49 -28.49246597 3.60313034 49 -29.75771713 2.75771642 49 -30.60313034 1.4924655 49 -30.89999962 0 49 -30.60313034 -1.4924655 49 -29.75771713 -2.75771642 49 -27 -2.20000005 49 -25.89999962 -1.90525591 49 -25.09474564 -1.10000002 49 -24.79999924 0 49 -25.09474564 1.10000002 49 -25.89999962 1.90525591 49 -27 2.20000005 49 -28.09999847 1.90525591 49 -28.90525627 1.10000002 49 -29.20000076 0 49 -28.90525627 -1.10000002 49 -28.09999847 -1.90525591 120.29999542 -14 -41.37757874 120.29999542 14 -41.37757874 120.13827515 -14 -42.76127243 120.13827515 14 -42.76127243 119.66179657 -14 -44.07037354 119.66179657 14 -44.07037354 120.29999542 14 -12.69999981 120.29999542 -14 -12.69999981 114.30000305 -14 -6.70000029 114.30000305 14 -6.70000029 116.15409851 -14 -6.99366093 116.15409851 14 -6.99366093 117.82670593 -14 -7.84589815 117.82670593 14 -7.84589815 119.15409851 -14 -9.17328835 119.15409851 14 -9.17328835 120.00634003 -14 -10.84589863 120.00634003 14 -10.84589863 43 -25.89999962 -1.90525591 43 -27 -2.20000005 43 -28.09999847 -1.90525591 43 -28.90525627 -1.10000002 43 -29.20000076 0 43 -28.90525627 1.10000002 43 -28.09999847 1.90525591 43 -27 2.20000005 43 -25.89999962 1.90525591 43 -25.09474564 1.10000002 43 -24.79999924 0 43 -25.09474564 -1.10000002 43 28.09999847 -1.90525591 43 27 -2.20000005 43 25.89999962 -1.90525591 43 25.09474564 -1.10000002 43 24.79999924 0 43 25.09474564 1.10000002 43 25.89999962 1.90525591 43 27 2.20000005 43 28.09999847 1.90525591 43 28.90525627 1.10000002 43 29.20000076 0 43 28.90525627 -1.10000002 51 34 -6.70000029 52 33 -6.70000029 43 34 -6.70000029 52 17 -6.70000029 52.22835922 15.85194969 -6.70000029 51.5 33.86602783 -6.70000029 51.86602783 33.5 -6.70000029 52.87868118 14.87867928 -6.70000029 52.87868118 -14.87867928 -6.70000029 52.22835922 -15.85194969 -6.70000029 43 -34 -6.70000029 52 -17 -6.70000029 52 -33 -6.70000029 53.85194778 -14.22836208 -6.70000029 53.85194778 14.22836208 -6.70000029 55 -14 -6.70000029 55 14 -6.70000029 51 -34 -6.70000029 51.86602783 -33.5 -6.70000029 51.5 -33.86602783 -6.70000029</float_array>
          <technique_common>
            <accessor source="#pos_0-array" count="1998" stride="3">
              <param name="X" type="float"/>
              <param name="Y" type="float"/>
              <param name="Z" type="float"/>
            </accessor>
          </technique_common>
        </source>
        <source id="norm_0">
          <float_array id="norm_0-array" count="2478">0.96593 0.25882 0 0.7071 0.70711 0 0.25882 0.96593 0 1 0 0 0.70711 0.70711 0 0.96593 0.25882 0 0 1 0 0 -0.25882 0.96593 0 -0.70711 0.70711 0 -0.96593 0.25882 0 -1 0 -1 0 -0 0 0.96593 0.25882 0 0.70711 0.70711 0 0.25882 0.96593 0 0.25882 -0.96593 0 0.70711 -0.70711 0 0.96593 -0.25882 -0 -0.96593 -0.25882 -0 -0.70711 -0.70711 -0 -0.25882 -0.96593 0 0.70711 -0.70711 0 0.96593 -0.25882 -0 -0.96593 -0.25882 -0 -0.70711 -0.70711 0 -0.70711 0.70711 0 -0.96593 0.25882 0 0.96593 0.25882 0 0.70711 0.70711 0 -0 1 -0 -0 -1 -0.62089 0.25882 -0.73994 -0.62089 -0.25882 -0.73994 -0.45452 -0.70711 -0.54168 -0.45452 -0.70711 -0.54167 -0.16637 -0.96593 -0.19827 0.16636 -0.96593 0.19827 0.16637 -0.96593 0.19827 0.45452 -0.70711 0.54167 0.45452 -0.70711 0.54167 0.62089 -0.25882 0.73994 0.62089 0.25882 0.73994 0.45452 0.70711 0.54168 0.45452 0.70711 0.54167 0.16637 0.96593 0.19827 0.16637 0.96593 0.19827 -0.16637 0.96593 -0.19827 -0.45452 0.70711 -0.54168 -0.45452 0.70711 -0.54167 -0.76604 0 0.64279 -0.76604 -0 0.64279 -0.76604 0 0.64279 -0.76604 -0 0.64279 -0.76605 -0 0.64278 -0.76605 0 0.64279 -0.76604 0 0.64279 -0.76604 0 0.64279 -0.76604 0 0.64279 -0.76604 0 0.64279 -0.76604 0 0.64279 -0.76604 0 0.64279 -0.76604 -0 0.64279 -0.76604 -0 0.64279 -0.76604 -0 0.64279 -0.76604 -0 0.64279 -0.76604 -0 0.64279 -0.76605 -0 0.64279 -0.76605 0 0.64278 -0.76604 0 0.64279 -0.76604 -0 0.64279 0.2368 -0.92967 0.28221 0.46762 -0.68612 0.55729 0.46762 -0.68612 0.55729 0.6104 -0.3134 0.72745 0.61041 -0.3134 0.72745 0.63827 0.11832 0.76066 0.63827 0.11832 0.76066 0.54598 0.52777 0.65067 0.35089 0.83785 0.41818 0.08975 0.9902 0.10696 0.08975 0.9902 0.10696 -0.18829 0.95614 -0.22439 -0.18829 0.95613 -0.2244 -0.43088 0.74206 -0.51351 -0.43088 0.74206 -0.5135 -0.59235 0.38829 -0.70594 -0.59235 0.38828 -0.70594 -0.64231 -0.03859 -0.76547 -0.57134 -0.45821 -0.6809 -0.57134 -0.4582 -0.6809 -0.40204 0.78026 -0.47913 -0.59968 0.36003 -0.71467 -0.59968 0.36003 -0.71468 -0.63473 -0.15781 -0.75645 -0.63473 -0.15781 -0.75645 -0.49769 -0.63287 -0.59312 -0.2257 -0.93633 -0.26898 -0.2257 -0.93633 -0.26898 0.10748 -0.98592 0.12809 0.10748 -0.98592 0.12809 0.41153 -0.76819 0.49044 0.41152 -0.76819 0.49043 0.60398 -0.34219 0.7198 0.60399 -0.34218 0.7198 0.63269 0.1766 0.754 -0.76605 1E-05 0.64278 -0.76605 1E-05 0.64279 -0.76605 0 0.64278 -0.76604 -0 0.64279 -0.76604 0 0.64279 -0.76604 0 0.64279 -0.76604 -0 0.64279 -0.76605 0 0.64279 -0.76604 -0 0.64279 -0.76604 0 0.64279 -0.76604 0 0.64279 -0.76604 0 0.64279 -0.76604 -0 0.64279 -0.76604 -0 0.64279 -0.76604 -0 0.64279 -0.76605 -0 0.64278 -0.76605 -1E-05 0.64279 -0.76605 -1E-05 0.64279 -0.76605 0 0.64278 -0.76604 0 0.64279 -0.76604 0 0.64279 -0.76605 -0 0.64278 -0.76605 0 0.64278 -0.76604 -0 0.64279 -0.76604 -0 0.64279 -0.76604 1E-05 0.64279 -0.76605 0 0.64279 -0.76605 0 0.64279 -0.76605 -0 0.64279 -0.76605 -0 0.64279 -0.76604 -0 0.64279 -0.76604 0 0.64279 -0.76605 0 0.64278 -0.76604 -0 0.64279 -0.76604 -0 0.64279 -0.76604 -0 0.64279 -0.76604 0 0.64279 -0.76605 0 0.64278 -0.76605 -0 0.64278 -0.76604 0 0.64279 -0.76604 -0 0.64279 -0.76605 0 0.64279 -0.76605 -1E-05 0.64278 -0.62089 0.25882 -0.73994 -0.62089 -0.25882 -0.73994 -0.45452 -0.70711 -0.54168 -0.45452 -0.70711 -0.54167 -0.16637 -0.96593 -0.19827 0.16636 -0.96593 0.19827 0.16637 -0.96593 0.19827 0.45452 -0.70711 0.54167 0.45452 -0.70711 0.54167 0.62089 -0.25882 0.73994 0.62089 0.25882 0.73994 0.45452 0.70711 0.54168 0.45452 0.70711 0.54167 0.16637 0.96593 0.19827 0.16637 0.96593 0.19827 -0.16637 0.96593 -0.19827 -0.45452 0.70711 -0.54168 -0.45452 0.70711 -0.54167 -0.76604 -0 0.64279 -0.76604 0 0.64279 -0.76604 -0 0.64279 -0.76604 0 0.64279 -0.76605 0 0.64278 -0.76605 -0 0.64279 -0.76604 -0 0.64279 -0.76604 -0 0.64279 -0.76604 -0 0.64279 -0.76604 -0 0.64279 -0.76604 0 0.64279 -0.76604 0 0.64279 -0.76604 0 0.64279 -0.76604 0 0.64279 -0.76605 0 0.64279 -0.76605 -0 0.64278 -0.76604 -0 0.64279 -0.76604 0 0.64279 -0.57134 0.45821 -0.68089 -0.57134 0.4582 -0.6809 -0.64231 0.03859 -0.76547 -0.59235 -0.38829 -0.70594 -0.59236 -0.38828 -0.70594 -0.43088 -0.74206 -0.51351 -0.43088 -0.74206 -0.5135 -0.18829 -0.95614 -0.22439 -0.18829 -0.95613 -0.22439 0.08975 -0.9902 0.10696 0.08975 -0.9902 0.10696 0.35089 -0.83785 0.41818 0.54598 -0.52777 0.65067 0.63827 -0.11832 0.76066 0.63827 -0.11832 0.76066 0.6104 0.3134 0.72745 0.6104 0.3134 0.72745 0.46762 0.68612 0.55729 0.46762 0.68612 0.55729 0.2368 0.92967 0.28221 0.63269 -0.1766 0.754 0.60398 0.34219 0.7198 0.60398 0.34218 0.7198 0.41152 0.76819 0.49044 0.41152 0.76819 0.49043 0.10748 0.98592 0.12809 0.10748 0.98592 0.1281 -0.2257 0.93633 -0.26898 -0.2257 0.93633 -0.26898 -0.49769 0.63287 -0.59312 -0.63473 0.15781 -0.75644 -0.63473 0.15781 -0.75645 -0.59968 -0.36003 -0.71467 -0.59968 -0.36003 -0.71467 -0.40204 -0.78026 -0.47913 -0.76605 -0 0.64278 -0.76604 -0 0.64279 -0.76604 -0 0.64279 -0.76605 1E-05 0.64279 -0.76605 1E-05 0.64279 -0.76605 0 0.64278 -0.76604 0 0.64279 -0.76604 0 0.64279 -0.76604 0 0.64279 -0.76604 -0 0.64279 -0.76604 -0 0.64279 -0.76604 0 0.64279 -0.76605 -0 0.64279 -0.76605 -0 0.64278 -0.76604 0 0.64279 -0.76604 -0 0.64279 -0.76604 -0 0.64279 -0.76604 0 0.64279 -0.76605 -0 0.64278 -0.76605 1E-05 0.64278 -0.76605 -1E-05 0.64279 -0.76605 -1E-05 0.64278 -0.76605 0 0.64278 -0.76605 -0 0.64279 -0.76604 0 0.64279 -0.76604 -0 0.64279 -0.76605 0 0.64278 -0.76605 -0 0.64278 -0.76604 -0 0.64279 -0.76604 0 0.64279 -0.76604 0 0.64279 -0.76604 0 0.64279 -0.76605 -0 0.64278 -0.76604 -0 0.64279 -0.76604 0 0.64279 -0.76605 0 0.64279 -0.76605 0 0.64279 -0.76605 -0 0.64279 -0.76604 -1E-05 0.64279 -0.76604 0 0.64279 -0.76604 0 0.64279 -0.62874 0.20791 -0.7493 -0.62874 -0.20791 -0.7493 -0.52003 -0.58779 -0.61974 -0.52003 0.58779 -0.61974 -0.3214 0.86602 -0.38302 -0.32139 0.86603 -0.38302 -0.06719 0.99452 -0.08007 -0.06719 0.99452 -0.08007 0.19863 0.95106 0.23672 0.19863 0.95106 0.23672 0.43011 0.74314 0.51258 0.43011 0.74315 0.51258 0.58721 0.40674 0.69982 0.64279 0 0.76605 0.58721 -0.40674 0.69982 0.43011 -0.74314 0.51258 0.43011 -0.74315 0.51258 0.19863 -0.95106 0.23672 0.19863 -0.95106 0.23672 -0.06719 -0.99452 -0.08007 -0.06719 -0.99452 -0.08007 -0.32139 -0.86602 -0.38302 -0.32139 -0.86603 -0.38302 -0.76605 -0 0.64279 -0.76605 0 0.64279 -0.76604 -0 0.64279 -0.76604 -0 0.64279 -0.76605 0 0.64278 -0.76605 -0 0.64279 -0.76604 -0 0.64279 -0.76604 -0 0.64279 -0.76605 -0 0.64279 -0.76604 0 0.64279 -0.76605 0 0.64278 -0.76605 0 0.64278 -0.76605 0 0.64279 -0.76605 0 0.64279 -0.76605 -0 0.64279 -0.76605 -0 0.64278 -0.76605 -0 0.64278 -0.76604 -0 0.64279 -0.76605 0 0.64279 -0.76604 0 0.64279 -0.76604 0 0.64279 -0.76605 0 0.64279 -0.76605 -0 0.64278 -0.76604 0 0.64279 -0.76604 0 0.64279 0.76604 -0 -0.64279 0.76604 -0 -0.64279 0.76604 -0 -0.64279 0.76605 1E-05 -0.64279 0.76604 0 -0.64279 0.76604 0 -0.64279 0.76604 0 -0.64279 0.76604 0 -0.64279 0.76604 -1E-05 -0.64279 0.76604 -0 -0.64279 0.76604 -0 -0.64279 0.76604 0 -0.64279 0.76604 0 -0.64279 0.76604 -0 -0.64279 0.76604 0 -0.64279 0.76604 0 -0.64279 0.76605 -0 -0.64279 0.76604 0 -0.64279 0.76604 0 -0.64279 0.76604 0 -0.64279 0.76605 -0 -0.64278 0.76605 -1E-05 -0.64278 0.76604 0 -0.64279 0.76604 0 -0.64279 0.76604 -0 -0.64279 0.76602 -5E-05 -0.64281 0.76605 1E-05 -0.64278 0.76604 0 -0.64279 0.76605 -1E-05 -0.64279 0.76604 1E-05 -0.64279 0.76604 0 -0.64279 0.76604 -1E-05 -0.64279 0.76604 -0 -0.64279 0.76605 1E-05 -0.64278 0.76605 -1E-05 -0.64278 0.76602 5E-05 -0.64281 0.76604 -0 -0.64279 0.76604 0 -0.64279 0.76604 -0 -0.64279 0.76604 -0 -0.64279 0.76604 -1E-05 -0.64279 0.76604 0 -0.64279 0.76604 1E-05 -0.64279 0.76604 0 -0.64279 0.76604 0 -0.64279 0.76604 0 -0.64279 0.76604 0 -0.64279 0.76604 -0 -0.64279 0.76604 -0 -0.64279 0.76604 0 -0.64279 0.76605 0 -0.64278 0.76605 0 -0.64279 0.76604 0 -0.6428 0.76604 -0 -0.64279 0.76604 -0 -0.6428 0.76605 -0 -0.64279 0.76605 -0 -0.64278 0.76604 -0 -0.64279 0.76604 0 -0.64279 0.76604 0 -0.64279 0.76604 -0 -0.64279 0.76604 0 -0.64279 0.76604 0 -0.64279 0.76604 -0 -0.64279 0.76604 -0 -0.64279 0.76605 0 -0.64279 0.76604 -0 -0.64279 0.76604 -0 -0.64279 0.76604 -0 -0.64279 0.76605 0 -0.64278 0.76604 -1E-05 -0.64279 0.76604 1E-05 -0.64279 0.76604 -1E-05 -0.64279 0.76604 0 -0.64279 0.76604 -0 -0.64279 0.76604 -0 -0.64279 0.76604 0 -0.64279 0.76604 0 -0.64279 0.76604 1E-05 -0.64279 0.76604 0 -0.64279 0.76604 -0 -0.64279 0.76604 1E-05 -0.64279 0.83549 0 -0.54951 0.93969 0 -0.34202 0.99324 0 -0.11609 0.98769 -0 0.15643 0.89101 -0 0.45399 0.70711 -0 0.70711 0.45399 -0 0.89101 0.15644 -0 0.98769 -0.62088 0.25882 -0.73994 -0.62088 0.25882 -0.73994 -0.45452 0.7071 -0.54168 -0.16637 0.96593 -0.19827 -0.16637 0.96593 -0.19827 -0.64279 -0 -0.76604 -0.16637 -0.96593 -0.19827 -0.16637 -0.96593 -0.19827 -0.45452 -0.7071 -0.54168 -0.62088 -0.25882 -0.73994 -0.62088 -0.25882 -0.73994 0.96593 -0.25882 0 0.70711 -0.70711 0 0.25882 -0.96593 0 0.7071 -0.70711 0 0.96593 -0.25882 0 -0.76605 -0 0.64279 -0.76604 0 0.64279 -0.76605 0 0.64279 -0.76604 -0 0.64279 -0.76605 -0 0.64279 -0.76604 -0 0.64279 -0.76605 0 0.64279 -0.76604 0 0.64279 -0.76604 -0 0.64279 -0.76604 1E-05 0.64279 -0.76604 -0 0.64279 -0.76604 0 0.64279 -0.76605 0 0.64279 -0.76605 0 0.64278 -0.76605 0 0.64279 -0.76604 -0 0.64279 -0.76605 -0 0.64279 -0.76605 -0 0.64278 -0.76604 -0 0.64279 -0.76604 -0 0.64279 -0.76604 -0 0.64279 -0.76604 0 0.64279 -0.76604 0 0.64279 -0.76604 0 0.64279 -0.76604 0 0.64279 -0.76605 0 0.64278 -0.76605 0 0.64279 -0.76604 0 0.64279 -0.76605 -0 0.64279 -0.76605 -0 0.64278 -0.76605 -0 0.64279 -0.76604 -0 0.64279 -0.76604 0 0.64279 -0.76604 0 0.64279 -0.76604 0 0.64279 -0.76603 1E-05 0.6428 -0.76603 1E-05 0.6428 -0.76604 -0 0.64279 -0.76604 0 0.64279 -0.76604 1E-05 0.64279 -0.76605 -0 0.64279 -0.76604 -0 0.64279 -0.76605 -0 0.64279 -0.76604 -1E-05 0.64279 -0.76606 3E-05 0.64277 -0.76604 -0 0.64279 -0.76604 2E-05 0.64279 -0.76604 -1E-05 0.64279 -0.76604 1E-05 0.64279 -0.76604 0 0.64279 -0.76605 -1E-05 0.64279 -0.76604 -0 0.64279 -0.76604 0 0.64279 -0.76604 -0 0.64279 -0.76604 0 0.64279 -0.76604 -0 0.64279 -0.76604 -0 0.64279 -0.76604 0 0.64279 -0.76604 -0 0.64279 -0.76604 -1E-05 0.64279 -0.76604 0 0.64279 -0.76604 0 0.64279 -0.76605 0 0.64279 -0.76604 0 0.64279 -0.76604 0 0.64279 -0.76604 0 0.64279 -0.76604 -1E-05 0.64279 -0.76604 0 0.64279 -0.76604 0 0.64279 -0.76604 0 0.64279 -0.76604 -0 0.64279 -0.76604 0 0.64279 -0.76604 1E-05 0.64279 -0.76604 -0 0.64279 -0.76604 -0 0.64279 -0.76604 0 0.64279 -0.76604 -0 0.64279 -0.76604 0 0.64279 -0.76605 1E-05 0.64279 -0.76604 -0 0.64279 -0.76604 -1E-05 0.64279 -0.76604 1E-05 0.64279 -0.76604 -2E-05 0.64279 -0.76604 0 0.64279 -0.76605 0 0.64279 -0.76604 0 0.64279 -0.76605 0 0.64279 -0.76604 -1E-05 0.64279 -0.76604 0 0.64279 -0.76603 -1E-05 0.6428 -0.76603 -1E-05 0.6428 -0.76604 -0 0.64279 -0.76604 -0 0.64279 -0.76604 1E-05 0.64279 -0.76606 -3E-05 0.64277 -0.59888 -0.34201 -0.72414 -0.64791 0 -0.76172 -0.59888 0.34201 -0.72414 -0.49752 0.64277 -0.5825 -0.31626 0.866 -0.38732 -0.11675 0.98479 -0.12871 0.11675 0.98479 0.12871 0.31625 0.86601 0.38732 0.49753 0.64277 0.5825 0.59888 0.34201 0.72414 0.64791 -0 0.76172 0.59888 -0.34201 0.72414 0.49753 -0.64277 0.5825 0.31625 -0.86601 0.38732 0.11675 -0.98479 0.12871 -0.11675 -0.98479 -0.12871 -0.31626 -0.866 -0.38732 -0.49752 -0.64277 -0.5825 -0.61185 -0.28172 -0.7391 -0.64766 0 -0.76193 -0.61185 0.28172 -0.7391 -0.54562 0.54062 -0.64033 -0.41604 0.75573 -0.50574 -0.2719 0.90961 -0.31412 -0.08659 0.9898 -0.11312 0.08659 0.9898 0.11312 0.2719 0.90961 0.31412 0.41604 0.75573 0.50574 0.54562 0.54063 0.64033 0.61185 0.28173 0.7391 0.64766 -0 0.76193 0.61185 -0.28173 0.7391 0.54562 -0.54063 0.64033 0.41604 -0.75573 0.50574 0.2719 -0.90961 0.31412 0.08659 -0.9898 0.11312 -0.08659 -0.9898 -0.11312 -0.2719 -0.90961 -0.31412 -0.41604 -0.75573 -0.50574 -0.54562 -0.54062 -0.64033 -0.61185 -0.28172 -0.7391 -0.61185 0.28172 -0.7391 -0.54562 0.54062 -0.64033 0.54562 0.54063 0.64033 0.61185 0.28173 0.7391 0.61185 -0.28173 0.7391 0.54562 -0.54063 0.64033 -0.54562 -0.54062 -0.64033 -0.59888 -0.34201 -0.72414 -0.59888 0.34201 -0.72414 -0.31626 0.866 -0.38732 -0.11675 0.98479 -0.12871 0.11675 0.98479 0.12871 0.31625 0.86601 0.38732 0.59888 0.34201 0.72414 0.59888 -0.34201 0.72414 0.31625 -0.86601 0.38732 0.11675 -0.98479 0.12871 -0.11675 -0.98479 -0.12871 -0.31626 -0.866 -0.38732 -0.59888 -0.34201 -0.72414 -0.59888 0.34201 -0.72414 -0.49753 0.64277 -0.5825 -0.31625 0.86601 -0.38732 -0.11675 0.98479 -0.12871 0.31625 0.86601 0.38732 0.49753 0.64277 0.5825 0.49753 -0.64277 0.5825 0.31625 -0.86601 0.38732 -0.11675 -0.98479 -0.12871 -0.31625 -0.86601 -0.38732 -0.49753 -0.64277 -0.5825 -0.59888 -0.34201 -0.72414 -0.59888 0.34201 -0.72414 -0.31625 0.86601 -0.38732 -0.11675 0.98479 -0.12871 0.31625 0.86601 0.38732 0.31625 -0.86601 0.38732 -0.11675 -0.98479 -0.12871 -0.31625 -0.86601 -0.38732 -0.61185 -0.28173 -0.7391 -0.61185 0.28173 -0.7391 -0.54562 0.54063 -0.64033 -0.41604 0.75573 -0.50574 -0.2719 0.90961 -0.31412 -0.08659 0.9898 -0.11312 0.08659 0.9898 0.11312 0.2719 0.90961 0.31412 0.41604 0.75574 0.50574 0.54562 0.54063 0.64033 0.61185 0.28172 0.7391 0.64766 -0 0.76193 0.61185 -0.28172 0.7391 0.54562 -0.54063 0.64033 0.41604 -0.75574 0.50574 0.2719 -0.90961 0.31412 0.08659 -0.9898 0.11312 -0.08659 -0.9898 -0.11312 -0.2719 -0.90961 -0.31412 -0.41604 -0.75573 -0.50574 -0.54562 -0.54063 -0.64033 -0 0.19509 0.98079 0 -0.19509 0.98079 0 -0.55557 0.83147 0 -0.83147 0.55557 0 -0.98079 0.19509 0 -0.98079 -0.19509 0 -0.83147 -0.55557 0 -0.55557 -0.83147 0 -0.19509 -0.98079 0 0.19509 -0.98079 0 0.55557 -0.83147 0 0.83147 -0.55557 0 0.98079 -0.19509 -0 0.98079 0.19509 -0 0.83147 0.55557 -0 0.55557 0.83147 -0 0.19509 0.98079 0 -0.19509 0.98079 0 -0.55557 0.83147 0 -0.83147 0.55557 0 -0.83147 -0.55557 0 -0.55557 -0.83147 0 -0.19509 -0.98079 0 0.19509 -0.98079 0 0.55557 -0.83147 0 0.83147 -0.55557 -0 0.83147 0.55557 -0 0.55557 0.83147 -0.99324 0 0.11609 -0.93969 0 0.34202 -0.83549 0 0.54951 -0.15643 0 -0.98769 -0.45399 0 -0.89101 -0.70711 0 -0.70711 -0.89101 0 -0.45399 -0.98769 0 -0.15643 0 -0.25882 0.96593 0 0.25882 0.96593 0 0.70711 0.70711 0 0.96593 0.25882 0 0.96593 -0.25882 0 0.70711 -0.70711 0 0.25882 -0.96593 -0 -0.25882 -0.96593 -0 -0.70711 -0.70711 -0 -0.96593 -0.25882 0 -0.96593 0.25882 0 -0.70711 0.70711 0 -0.25882 0.96593 0 0.25882 0.96593 0 0.70711 0.70711 0 0.70711 -0.70711 0 0.25882 -0.96593 -0 -0.25882 -0.96593 -0 -0.70711 -0.70711 0 -0.70711 0.70711 0 -0.70711 0.70711 0.18616 -0.69475 0.69475 0.18616 -0.69475 0.69475 0.50859 -0.50859 0.69475 0.50859 -0.50859 0.69475 0.69475 -0.18615 0.69475 0.69475 -0.18616 0.69475 0.70711 -0 0.70711 0.70021 -0.13928 0.70022 0.66866 -0.17917 0.72166 0.60383 -0.40347 0.68747 0.48326 -0.48326 0.73001 0.40347 -0.60383 0.68747 0.17917 -0.66866 0.72166 0.13928 -0.70021 0.70021 0 -0.70711 0.70711 0.70272 -0.70271 0.1113 0.70271 -0.70271 0.1113 0.63393 -0.70271 0.323 0.50309 -0.70271 0.50309 0.50309 -0.70271 0.50309 0.323 -0.70271 0.63393 0.323 -0.70271 0.63393 0.1113 -0.70271 0.70271 0.1113 -0.70271 0.70271 0.70711 -0.7071 0 0.59278 -0.7047 -0.38988 0.59278 -0.70471 -0.38988 0.66671 -0.70471 -0.24266 0.66672 -0.7047 -0.24266 0.7047 -0.7047 -0.08237 0.70471 -0.7047 -0.08237 0.54167 -0.70711 -0.45452 0.41254 -0.69475 -0.58919 0.41255 -0.69474 -0.58918 0.2053 -0.5086 -0.83617 0.20529 -0.50859 -0.83618 0.08562 -0.18615 -0.97878 0.08564 -0.18616 -0.97878 0.08716 0 -0.99619 0.08564 0.18615 -0.97878 0.08563 0.18616 -0.97878 0.20529 0.5086 -0.83617 0.20529 0.50859 -0.83618 0.41254 0.69474 -0.58919 0.41255 0.69475 -0.58918 0.54167 0.70711 -0.45452 0.70471 0.7047 -0.08237 0.7047 0.7047 -0.08237 0.66671 0.7047 -0.24267 0.66671 0.70471 -0.24266 0.59278 0.70471 -0.38988 0.59278 0.7047 -0.38988 0.70711 0.7071 -0 0.1113 0.70271 0.70271 0.1113 0.70271 0.70271 0.323 0.70271 0.63393 0.323 0.70271 0.63393 0.50309 0.70271 0.50309 0.50309 0.70271 0.50309 0.63393 0.70271 0.323 0.70271 0.70272 0.1113 0.70272 0.70271 0.1113 0 0.70711 0.70711 0.13928 0.70021 0.70021 0.17917 0.66866 0.72166 0.40347 0.60383 0.68747 0.48326 0.48326 0.73001 0.60383 0.40347 0.68747 0.66866 0.17917 0.72166 0.70021 0.13928 0.70022 0.69475 0.18615 0.69475 0.69475 0.18616 0.69475 0.50859 0.50859 0.69475 0.50859 0.50859 0.69475 0.18616 0.69475 0.69475 0.18616 0.69475 0.69475 -0 0.70711 0.70711 0 -0.70711 -0.70711 0.69475 -0.18615 -0.69475 0.69475 -0.18616 -0.69475 0.50859 -0.50859 -0.69475 0.50859 -0.50859 -0.69475 0.18616 -0.69475 -0.69475 0.18616 -0.69475 -0.69475 0.70711 0 -0.70711 0.13928 -0.70021 -0.70021 0.17917 -0.66866 -0.72166 0.40347 -0.60383 -0.68747 0.48326 -0.48326 -0.73001 0.60383 -0.40347 -0.68747 0.66866 -0.17917 -0.72166 0.70021 -0.13928 -0.70022 -0 -0.70711 -0.70711 -0.09269 -0.70406 -0.70406 -0.10867 -0.71934 -0.68611 -0.27626 -0.69201 -0.66694 -0.31087 -0.72877 -0.61012 -0.44308 -0.68575 -0.57743 -0.48188 -0.73183 -0.48189 -0.57743 -0.68575 -0.44308 -0.61012 -0.72877 -0.31087 -0.66694 -0.69201 -0.27625 -0.68611 -0.71934 -0.10867 -0.70406 -0.70406 -0.09269 -0.70711 -0.70711 0 -0.7047 -0.70471 0.08237 -0.70471 -0.7047 0.08236 -0.66671 -0.7047 0.24266 -0.66671 -0.7047 0.24266 -0.59278 -0.7047 0.38988 -0.59278 -0.7047 0.38988 -0.54167 -0.70711 0.45452 -0.97878 -0.18616 -0.08563 -0.97878 -0.18616 -0.08563 -0.85912 -0.5086 0.05697 -0.85912 -0.50859 0.05697 -0.65187 -0.69474 0.30397 -0.65187 -0.69475 0.30397 -0.99619 -0 -0.08715 -0.65187 0.69475 0.30396 -0.65187 0.69475 0.30397 -0.85912 0.50859 0.05698 -0.85912 0.50859 0.05697 -0.97878 0.18616 -0.08564 -0.97878 0.18616 -0.08563 -0.54167 0.70711 0.45452 -0.59278 0.7047 0.38988 -0.59278 0.7047 0.38988 -0.66671 0.7047 0.24266 -0.66671 0.7047 0.24266 -0.7047 0.7047 0.08237 -0.7047 0.70471 0.08236 -0.70711 0.70711 0 -0.70406 0.70406 -0.09269 -0.68611 0.71934 -0.10867 -0.66694 0.69201 -0.27625 -0.61012 0.72877 -0.31087 -0.57743 0.68575 -0.44308 -0.48188 0.73183 -0.48189 -0.44308 0.68575 -0.57743 -0.31087 0.72877 -0.61012 -0.27626 0.69201 -0.66694 -0.10867 0.71934 -0.68611 -0.09269 0.70406 -0.70406 0 0.70711 -0.70711 0.70021 0.13928 -0.70022 0.66866 0.17917 -0.72166 0.60383 0.40347 -0.68747 0.48326 0.48326 -0.73001 0.40347 0.60383 -0.68747 0.17917 0.66866 -0.72166 0.13928 0.70021 -0.70021 0.18616 0.69475 -0.69475 0.18616 0.69475 -0.69475 0.50859 0.50859 -0.69475 0.50859 0.50859 -0.69475 0.69475 0.18615 -0.69475 0.69475 0.18616 -0.69475 0 0.70711 -0.70711</float_array>
          <technique_common>
            <accessor source="#norm_0-array" count="2478" stride="3">
              <param name="X" type="float"/>
              <param name="Y" type="float"/>
              <param name="Z" type="float"/>
            </accessor>
          </technique_common>
        </source>
        <source id="uvs_0">
          <float_array id="uvs_0-array" count="0"></float_array>
          <technique_common>
            <accessor source="#uvs_0-array" count="0" stride="2">
              <param name="S" type="float"/>
              <param name="T" type="float"/>
            </accessor>
          </technique_common>
        </source>
        <vertices id="vert_0">
          <input semantic="POSITION" source="#pos_0"/>
        </vertices>
        <triangles count="1364" material="mat_0">
          <input semantic="VERTEX" source="#vert_0" offset="0"/>
          <input semantic="NORMAL" source="#norm_0" offset="1"/>
          <p>0 0 1 0 2 0 2 0 1 0 3 0 2 1 3 1 4 1 4 1 3 1 5 1 4 2 5 2 6 2 6 2 5 2 7 2 1 3 8 3 9 3 9 3 8 3 10 3 9 3 10 3 11 3 0 3 12 3 1 3 1 3 12 3 13 3 1 3 13 3 14 3 15 3 16 3 0 3 0 3 16 3 17 3 0 3 17 3 18 3 9 3 19 3 15 3 15 3 19 3 20 3 15 3 20 3 21 3 11 3 22 3 9 3 9 3 22 3 19 3 21 3 23 3 15 3 15 3 23 3 16 3 18 3 24 3 0 3 0 3 24 3 12 3 14 3 25 3 1 3 1 3 25 3 8 3 26 2 27 2 28 2 28 2 27 2 29 2 28 4 29 4 30 4 30 4 29 4 31 4 30 5 31 5 15 5 15 5 31 5 9 5 27 6 26 6 32 6 32 6 26 6 33 6 32 6 33 6 34 6 34 6 33 6 35 6 35 6 33 6 36 6 36 6 33 6 37 6 37 6 33 6 38 6 37 6 38 6 39 6 39 6 38 6 40 6 40 6 38 6 41 6 40 6 41 6 42 6 42 6 41 6 43 6 43 6 41 6 44 6 43 6 44 6 45 6 45 6 44 6 46 6 46 6 44 6 47 6 46 6 47 6 48 6 33 6 49 6 38 6 38 6 49 6 50 6 38 6 50 6 51 6 51 6 52 6 38 6 53 6 54 6 41 6 41 6 54 6 44 6 55 7 56 7 57 7 57 7 56 7 58 7 57 8 58 8 59 8 59 8 58 8 60 8 59 9 60 9 61 9 61 9 60 9 62 9 62 10 63 10 61 10 61 10 63 10 64 10 60 11 56 11 62 11 62 11 56 11 65 11 62 11 65 11 66 11 60 11 58 11 56 11 65 11 56 11 67 11 67 11 56 11 68 11 67 11 68 11 69 11 69 11 68 11 70 11 69 11 70 11 71 11 72 11 73 11 67 11 67 11 73 11 65 11 74 11 75 11 66 11 66 11 75 11 63 11 66 11 63 11 62 11 76 12 69 12 77 12 77 12 69 12 71 12 77 13 71 13 78 13 78 13 71 13 70 13 78 14 70 14 79 14 79 14 70 14 68 14 76 6 80 6 69 6 69 6 80 6 67 6 81 15 65 15 82 15 82 15 65 15 73 15 82 16 73 16 83 16 83 16 73 16 72 16 83 17 72 17 80 17 80 17 72 17 67 17 64 18 63 18 84 18 84 18 63 18 75 18 84 19 75 19 85 19 85 19 75 19 74 19 85 20 74 20 86 20 86 20 74 20 66 20 87 15 88 15 89 15 89 15 88 15 90 15 89 21 90 21 91 21 91 21 90 21 92 21 91 22 92 22 93 22 93 22 92 22 94 22 94 6 95 6 93 6 93 6 95 6 96 6 92 11 90 11 94 11 94 11 90 11 88 11 94 11 88 11 97 11 97 11 88 11 98 11 97 11 98 11 99 11 88 11 100 11 98 11 98 11 100 11 101 11 101 11 100 11 102 11 102 11 100 11 103 11 99 11 104 11 97 11 97 11 105 11 94 11 94 11 105 11 95 11 95 11 105 11 106 11 95 11 106 11 107 11 108 23 101 23 109 23 109 23 101 23 102 23 109 24 102 24 110 24 110 24 102 24 103 24 110 20 103 20 111 20 111 20 103 20 100 20 108 10 112 10 101 10 101 10 112 10 98 10 113 7 97 7 114 7 114 7 97 7 104 7 114 25 104 25 115 25 115 25 104 25 99 25 115 26 99 26 112 26 112 26 99 26 98 26 96 27 95 27 116 27 116 27 95 27 107 27 116 28 107 28 117 28 117 28 107 28 106 28 117 14 106 14 118 14 118 14 106 14 105 14 55 29 79 29 56 29 56 29 79 29 68 29 81 30 86 30 65 30 65 30 86 30 66 30 113 29 118 29 97 29 97 29 118 29 105 29 87 30 111 30 88 30 88 30 111 30 100 30 119 31 120 31 121 31 121 31 120 31 122 31 121 32 122 32 123 32 123 32 122 32 124 32 123 33 124 33 125 33 125 34 124 34 126 34 125 35 126 35 127 35 127 35 126 35 128 35 127 36 128 36 129 36 129 37 128 37 130 37 129 38 130 38 131 38 131 39 130 39 132 39 131 40 132 40 133 40 133 40 132 40 134 40 133 41 134 41 135 41 135 41 134 41 136 41 135 42 136 42 137 42 137 43 136 43 138 43 137 44 138 44 139 44 139 45 138 45 140 45 139 46 140 46 141 46 141 46 140 46 142 46 141 47 142 47 119 47 119 48 142 48 120 48 143 49 119 49 144 49 144 50 119 50 121 50 144 51 121 51 123 51 119 52 143 52 141 52 141 53 143 53 145 53 141 54 145 54 139 54 139 55 145 55 146 55 139 56 146 56 137 56 137 57 146 57 135 57 135 58 146 58 147 58 135 59 147 59 133 59 133 60 147 60 148 60 133 61 148 61 131 61 131 62 148 62 149 62 131 63 149 63 129 63 129 64 149 64 127 64 127 65 149 65 150 65 127 66 150 66 125 66 125 67 150 67 151 67 125 68 151 68 123 68 123 69 151 69 144 69 152 70 153 70 154 70 154 70 153 70 155 70 154 71 155 71 156 71 156 72 155 72 157 72 156 73 157 73 158 73 158 74 157 74 159 74 158 75 159 75 160 75 160 76 159 76 161 76 160 77 161 77 162 77 162 77 161 77 163 77 162 78 163 78 164 78 164 78 163 78 165 78 164 79 165 79 166 79 166 80 165 80 167 80 166 81 167 81 168 81 168 82 167 82 169 82 168 83 169 83 170 83 170 84 169 84 171 84 170 85 171 85 172 85 172 86 171 86 173 86 172 87 173 87 174 87 174 87 173 87 175 87 174 88 175 88 176 88 176 89 175 89 177 89 176 90 177 90 178 90 178 90 177 90 179 90 178 91 179 91 180 91 180 92 179 92 181 92 180 93 181 93 182 93 182 94 181 94 183 94 182 95 183 95 184 95 184 95 183 95 185 95 184 96 185 96 186 96 186 97 185 97 187 97 186 98 187 98 188 98 188 99 187 99 189 99 188 100 189 100 190 100 190 101 189 101 191 101 190 102 191 102 192 102 192 103 191 103 193 103 192 104 193 104 152 104 152 104 193 104 153 104 178 105 194 105 176 105 176 106 194 106 195 106 176 107 195 107 196 107 196 108 195 108 197 108 197 109 195 109 198 109 197 110 198 110 199 110 199 111 198 111 200 111 199 112 200 112 152 112 152 113 200 113 192 113 192 114 200 114 201 114 192 115 201 115 190 115 190 116 201 116 202 116 190 117 202 117 188 117 188 118 202 118 186 118 186 119 202 119 203 119 186 120 203 120 184 120 184 121 203 121 204 121 184 122 204 122 182 122 182 123 204 123 205 123 182 124 205 124 180 124 180 125 205 125 178 125 178 126 205 126 194 126 199 127 152 127 206 127 206 128 152 128 154 128 206 129 154 129 156 129 206 130 156 130 207 130 207 131 156 131 158 131 207 132 158 132 208 132 208 133 158 133 160 133 208 134 160 134 162 134 208 135 162 135 209 135 209 136 162 136 164 136 209 137 164 137 210 137 210 138 164 138 166 138 210 139 166 139 211 139 211 140 166 140 168 140 211 141 168 141 212 141 212 142 168 142 170 142 212 143 170 143 213 143 213 144 170 144 172 144 213 145 172 145 174 145 213 146 174 146 196 146 196 147 174 147 176 147 214 148 215 148 216 148 216 148 215 148 217 148 216 149 217 149 218 149 218 149 217 149 219 149 218 150 219 150 220 150 220 151 219 151 221 151 220 152 221 152 222 152 222 152 221 152 223 152 222 153 223 153 224 153 224 154 223 154 225 154 224 155 225 155 226 155 226 156 225 156 227 156 226 157 227 157 228 157 228 157 227 157 229 157 228 158 229 158 230 158 230 158 229 158 231 158 230 159 231 159 232 159 232 160 231 160 233 160 232 161 233 161 234 161 234 162 233 162 235 162 234 163 235 163 236 163 236 163 235 163 237 163 236 164 237 164 214 164 214 165 237 165 215 165 214 166 216 166 238 166 238 167 216 167 218 167 238 168 218 168 239 168 239 169 218 169 220 169 239 170 220 170 240 170 240 171 220 171 222 171 240 172 222 172 241 172 241 173 222 173 224 173 241 174 224 174 226 174 241 62 226 62 242 62 242 175 226 175 228 175 242 60 228 60 243 60 243 176 228 176 230 176 243 58 230 58 244 58 244 177 230 177 232 177 244 178 232 178 234 178 244 179 234 179 245 179 245 180 234 180 236 180 245 181 236 181 246 181 246 182 236 182 214 182 246 183 214 183 238 183 247 184 248 184 249 184 249 185 248 185 250 185 249 186 250 186 251 186 251 186 250 186 252 186 251 187 252 187 253 187 253 188 252 188 254 188 253 189 254 189 255 189 255 190 254 190 256 190 255 191 256 191 257 191 257 192 256 192 258 192 257 193 258 193 259 193 259 194 258 194 260 194 259 195 260 195 261 195 261 195 260 195 262 195 261 196 262 196 263 196 263 196 262 196 264 196 263 197 264 197 265 197 265 198 264 198 266 198 265 199 266 199 267 199 267 200 266 200 268 200 267 201 268 201 269 201 269 202 268 202 270 202 269 203 270 203 271 203 271 203 270 203 272 203 271 204 272 204 273 204 273 204 272 204 274 204 273 205 274 205 275 205 275 206 274 206 276 206 275 207 276 207 277 207 277 208 276 208 278 208 277 209 278 209 279 209 279 210 278 210 280 210 279 211 280 211 281 211 281 212 280 212 282 212 281 213 282 213 283 213 283 213 282 213 284 213 283 214 284 214 285 214 285 215 284 215 286 215 285 216 286 216 287 216 287 217 286 217 288 217 287 218 288 218 247 218 247 218 288 218 248 218 289 219 283 219 290 219 290 220 283 220 285 220 290 221 285 221 287 221 283 222 289 222 281 222 281 223 289 223 291 223 281 224 291 224 279 224 279 225 291 225 292 225 279 226 292 226 277 226 277 227 292 227 275 227 275 228 292 228 293 228 275 229 293 229 273 229 273 114 293 114 294 114 273 230 294 230 271 230 271 231 294 231 295 231 271 232 295 232 296 232 294 233 297 233 295 233 295 234 297 234 298 234 298 235 297 235 299 235 298 236 299 236 300 236 300 237 299 237 247 237 300 238 247 238 249 238 299 239 301 239 247 239 247 240 301 240 287 240 287 241 301 241 290 241 300 242 249 242 302 242 302 243 249 243 251 243 302 244 251 244 253 244 302 245 253 245 303 245 303 246 253 246 255 246 303 247 255 247 304 247 304 248 255 248 257 248 304 249 257 249 305 249 305 250 257 250 259 250 305 251 259 251 306 251 306 252 259 252 261 252 306 253 261 253 307 253 307 254 261 254 263 254 307 255 263 255 265 255 307 132 265 132 308 132 308 256 265 256 267 256 308 257 267 257 296 257 296 258 267 258 269 258 296 259 269 259 271 259 309 260 310 260 311 260 311 260 310 260 312 260 311 261 312 261 313 261 313 261 312 261 314 261 313 262 314 262 315 262 309 263 316 263 310 263 310 263 316 263 317 263 317 264 316 264 318 264 317 265 318 265 319 265 319 266 318 266 320 266 319 267 320 267 321 267 321 268 320 268 322 268 321 269 322 269 323 269 323 270 322 270 324 270 323 271 324 271 325 271 325 272 324 272 326 272 325 272 326 272 327 272 327 273 326 273 328 273 327 273 328 273 329 273 329 274 328 274 330 274 329 274 330 274 331 274 331 275 330 275 332 275 331 276 332 276 333 276 333 277 332 277 334 277 333 278 334 278 335 278 335 279 334 279 336 279 335 280 336 280 337 280 337 281 336 281 338 281 337 282 338 282 315 282 315 262 338 262 313 262 309 283 311 283 339 283 339 284 311 284 313 284 339 285 313 285 340 285 340 286 313 286 338 286 340 287 338 287 341 287 341 288 338 288 336 288 341 289 336 289 342 289 342 290 336 290 334 290 342 291 334 291 332 291 342 292 332 292 343 292 343 293 332 293 330 293 343 294 330 294 344 294 344 295 330 295 328 295 344 296 328 296 326 296 344 296 326 296 345 296 345 297 326 297 324 297 345 298 324 298 346 298 346 299 324 299 322 299 346 300 322 300 347 300 347 301 322 301 320 301 347 302 320 302 318 302 347 303 318 303 348 303 348 304 318 304 316 304 348 305 316 305 349 305 349 306 316 306 309 306 349 307 309 307 339 307 350 308 351 308 352 308 352 309 351 309 353 309 352 310 353 310 354 310 354 311 353 311 355 311 354 312 355 312 356 312 357 313 358 313 350 313 350 314 358 314 359 314 350 313 359 313 360 313 361 315 362 315 357 315 357 316 362 316 363 316 357 317 363 317 364 317 364 318 363 318 365 318 364 319 365 319 366 319 366 320 365 320 367 320 366 321 367 321 368 321 368 322 367 322 369 322 369 323 367 323 370 323 369 324 370 324 371 324 371 325 370 325 372 325 371 326 372 326 373 326 373 327 372 327 374 327 373 328 374 328 375 328 375 329 374 329 376 329 375 330 376 330 377 330 377 331 376 331 378 331 377 332 378 332 379 332 380 333 381 333 361 333 361 334 381 334 377 334 361 335 377 335 382 335 382 336 377 336 379 336 375 337 377 337 383 337 383 338 377 338 354 338 383 338 354 338 384 338 384 339 354 339 385 339 385 340 354 340 386 340 385 341 386 341 387 341 354 342 388 342 352 342 352 343 388 343 389 343 390 344 391 344 392 344 392 320 391 320 393 320 392 345 393 345 394 345 394 346 393 346 395 346 394 347 395 347 396 347 396 348 395 348 397 348 397 349 395 349 398 349 397 350 398 350 399 350 399 351 398 351 400 351 399 320 400 320 401 320 402 352 403 352 390 352 390 353 403 353 404 353 390 354 404 354 391 354 403 355 402 355 405 355 405 356 402 356 406 356 405 357 406 357 407 357 407 358 406 358 408 358 407 359 408 359 409 359 409 360 408 360 410 360 409 361 410 361 357 361 357 313 410 313 358 313 358 362 411 362 359 362 359 363 411 363 412 363 412 364 411 364 413 364 412 365 413 365 414 365 414 366 413 366 415 366 414 367 415 367 396 367 396 368 415 368 394 368 383 369 384 369 416 369 416 369 384 369 417 369 416 370 417 370 391 370 391 370 417 370 393 370 398 371 418 371 400 371 400 372 418 372 419 372 419 373 418 373 420 373 419 374 420 374 421 374 421 375 420 375 422 375 421 376 422 376 387 376 387 377 422 377 385 377 366 378 368 378 423 378 423 349 368 349 404 349 423 379 404 379 403 379 364 380 424 380 357 380 357 381 424 381 425 381 357 313 425 313 409 313 356 382 386 382 354 382 399 383 401 383 426 383 426 384 401 384 427 384 426 385 427 385 350 385 350 386 427 386 351 386 382 387 362 387 361 387 360 388 428 388 350 388 350 389 428 389 426 389 357 390 350 390 429 390 429 390 350 390 430 390 429 391 430 391 431 391 431 391 430 391 432 391 431 392 432 392 433 392 433 392 432 392 434 392 435 3 436 3 434 3 434 3 436 3 433 3 436 393 435 393 437 393 437 393 435 393 438 393 437 394 438 394 439 394 439 394 438 394 440 394 439 395 440 395 441 395 441 395 440 395 442 395 441 396 442 396 443 396 443 396 442 396 444 396 443 397 444 397 445 397 445 397 444 397 446 397 447 398 448 398 449 398 449 399 448 399 450 399 449 400 450 400 451 400 451 400 450 400 452 400 451 401 452 401 47 401 47 402 452 402 48 402 448 403 447 403 453 403 453 403 447 403 454 403 455 29 456 29 457 29 457 29 456 29 458 29 457 29 458 29 459 29 460 29 461 29 455 29 455 29 461 29 462 29 455 29 462 29 456 29 463 29 464 29 460 29 460 29 464 29 465 29 460 29 465 29 466 29 467 29 468 29 463 29 463 29 468 29 464 29 469 29 470 29 466 29 466 29 470 29 461 29 466 29 461 29 460 29 470 29 469 29 471 29 471 29 469 29 472 29 471 29 472 29 473 29 473 29 472 29 474 29 473 29 474 29 446 29 446 29 474 29 445 29 475 404 476 404 477 404 477 405 476 405 478 405 477 406 478 406 479 406 479 406 478 406 480 406 479 407 480 407 454 407 454 408 480 408 453 408 476 10 475 10 481 10 481 10 475 10 482 10 481 10 482 10 483 10 483 10 482 10 484 10 484 10 482 10 485 10 484 10 485 10 486 10 486 10 485 10 487 10 487 10 485 10 488 10 487 10 488 10 489 10 489 10 488 10 490 10 490 10 488 10 491 10 490 10 491 10 492 10 492 10 491 10 493 10 493 10 491 10 494 10 494 10 491 10 495 10 495 10 491 10 496 10 495 10 496 10 497 10 482 10 498 10 485 10 485 10 498 10 499 10 500 10 501 10 488 10 488 10 501 10 502 10 488 10 502 10 503 10 503 10 491 10 488 10 504 409 505 409 506 409 506 409 505 409 507 409 506 410 507 410 508 410 508 410 507 410 509 410 508 411 509 411 496 411 496 411 509 411 497 411 505 3 510 3 511 3 511 3 510 3 512 3 511 3 512 3 513 3 504 3 514 3 505 3 505 3 514 3 515 3 505 3 515 3 516 3 517 3 518 3 504 3 504 3 518 3 519 3 504 3 519 3 520 3 511 3 521 3 517 3 517 3 521 3 522 3 517 3 522 3 523 3 513 3 524 3 511 3 511 3 524 3 521 3 523 3 525 3 517 3 517 3 525 3 518 3 520 3 526 3 504 3 504 3 526 3 514 3 516 3 527 3 505 3 505 3 527 3 510 3 528 411 529 411 530 411 530 411 529 411 531 411 530 412 531 412 532 412 532 412 531 412 533 412 532 413 533 413 517 413 517 413 533 413 511 413 534 6 535 6 7 6 7 6 535 6 6 6 529 10 528 10 536 10 536 10 528 10 537 10 310 414 538 414 312 414 312 415 538 415 539 415 312 416 539 416 314 416 314 417 539 417 217 417 314 418 217 418 215 418 317 419 124 419 310 419 310 420 124 420 122 420 310 421 122 421 538 421 538 422 122 422 120 422 538 423 120 423 142 423 124 424 317 424 126 424 126 425 317 425 319 425 126 426 319 426 128 426 128 427 319 427 321 427 128 428 321 428 130 428 130 429 321 429 323 429 130 430 323 430 132 430 132 431 323 431 325 431 132 432 325 432 183 432 183 433 325 433 327 433 183 434 327 434 185 434 185 435 327 435 329 435 185 435 329 435 282 435 282 436 329 436 284 436 284 437 329 437 331 437 284 438 331 438 231 438 231 439 331 439 333 439 231 440 333 440 233 440 233 441 333 441 335 441 233 442 335 442 235 442 235 443 335 443 337 443 235 444 337 444 237 444 237 445 337 445 315 445 237 446 315 446 215 446 215 447 315 447 314 447 272 448 270 448 274 448 274 449 270 449 276 449 276 450 270 450 268 450 276 451 268 451 540 451 540 452 268 452 541 452 541 453 268 453 266 453 541 454 266 454 264 454 264 455 262 455 541 455 541 456 262 456 542 456 541 457 542 457 543 457 543 458 542 458 544 458 262 459 260 459 542 459 542 460 260 460 258 460 542 461 258 461 539 461 539 462 258 462 256 462 539 463 256 463 223 463 223 464 256 464 254 464 223 465 254 465 225 465 225 466 254 466 252 466 225 467 252 467 227 467 227 468 252 468 250 468 227 469 250 469 288 469 288 470 250 470 248 470 288 471 286 471 227 471 227 472 286 472 229 472 229 473 286 473 284 473 229 474 284 474 231 474 185 475 282 475 187 475 187 475 282 475 280 475 187 476 280 476 189 476 189 476 280 476 278 476 189 477 278 477 191 477 191 477 278 477 276 477 191 478 276 478 540 478 223 479 221 479 539 479 539 480 221 480 219 480 539 481 219 481 217 481 177 482 175 482 179 482 179 483 175 483 136 483 179 484 136 484 181 484 181 485 136 485 134 485 181 486 134 486 183 486 183 487 134 487 132 487 175 488 173 488 136 488 136 489 173 489 138 489 138 490 173 490 171 490 138 491 171 491 140 491 140 492 171 492 169 492 140 493 169 493 538 493 538 494 169 494 167 494 538 495 167 495 545 495 545 496 167 496 165 496 545 497 165 497 163 497 545 498 163 498 540 498 540 499 163 499 161 499 540 500 161 500 159 500 159 501 157 501 540 501 540 502 157 502 191 502 157 503 155 503 191 503 191 504 155 504 193 504 193 505 155 505 153 505 142 506 140 506 538 506 540 507 546 507 545 507 545 508 546 508 547 508 239 509 360 509 238 509 238 510 360 510 359 510 238 511 359 511 246 511 246 512 359 512 412 512 246 513 412 513 245 513 245 514 412 514 414 514 245 515 414 515 244 515 244 516 414 516 396 516 244 517 396 517 243 517 243 518 396 518 397 518 243 519 397 519 242 519 242 520 397 520 399 520 242 521 399 521 241 521 241 522 399 522 426 522 241 523 426 523 240 523 240 524 426 524 428 524 240 525 428 525 239 525 239 526 428 526 360 526 196 527 367 527 213 527 213 528 367 528 365 528 213 529 365 529 212 529 212 530 365 530 363 530 212 531 363 531 211 531 211 532 363 532 362 532 211 533 362 533 210 533 210 534 362 534 382 534 210 535 382 535 209 535 209 536 382 536 379 536 209 537 379 537 208 537 208 538 379 538 378 538 208 539 378 539 207 539 207 540 378 540 376 540 207 541 376 541 206 541 206 542 376 542 374 542 206 543 374 543 199 543 199 544 374 544 372 544 199 545 372 545 197 545 197 546 372 546 370 546 197 547 370 547 196 547 196 548 370 548 367 548 303 549 401 549 302 549 302 528 401 528 400 528 302 550 400 550 300 550 300 551 400 551 419 551 300 531 419 531 298 531 298 532 419 532 421 532 298 533 421 533 295 533 295 534 421 534 387 534 295 535 387 535 296 535 296 536 387 536 386 536 296 552 386 552 308 552 308 553 386 553 356 553 308 539 356 539 307 539 307 554 356 554 355 554 307 555 355 555 306 555 306 542 355 542 353 542 306 543 353 543 305 543 305 544 353 544 351 544 305 545 351 545 304 545 304 546 351 546 427 546 304 547 427 547 303 547 303 556 427 556 401 556 151 557 409 557 144 557 144 510 409 510 425 510 144 558 425 558 143 558 143 512 425 512 424 512 143 559 424 559 145 559 145 560 424 560 364 560 145 561 364 561 146 561 146 562 364 562 366 562 146 517 366 517 147 517 147 563 366 563 423 563 147 519 423 519 148 519 148 564 423 564 403 564 148 521 403 521 149 521 149 565 403 565 405 565 149 566 405 566 150 566 150 567 405 567 407 567 150 568 407 568 151 568 151 526 407 526 409 526 204 569 404 569 205 569 205 510 404 510 368 510 205 570 368 570 194 570 194 571 368 571 369 571 194 572 369 572 195 572 195 573 369 573 371 573 195 561 371 561 198 561 198 574 371 574 373 574 198 575 373 575 200 575 200 563 373 563 375 563 200 519 375 519 201 519 201 564 375 564 383 564 201 576 383 576 202 576 202 577 383 577 416 577 202 566 416 566 203 566 203 578 416 578 391 578 203 579 391 579 204 579 204 580 391 580 404 580 301 581 398 581 290 581 290 510 398 510 395 510 290 582 395 582 289 582 289 571 395 571 393 571 289 583 393 583 291 583 291 584 393 584 417 584 291 515 417 515 292 515 292 585 417 585 384 585 292 575 384 575 293 575 293 518 384 518 385 518 293 519 385 519 294 519 294 520 385 520 422 520 294 576 422 576 297 576 297 586 422 586 420 586 297 523 420 523 299 523 299 587 420 587 418 587 299 588 418 588 301 588 301 580 418 580 398 580 340 589 358 589 339 589 339 528 358 528 410 528 339 590 410 590 349 590 349 591 410 591 408 591 349 592 408 592 348 592 348 593 408 593 406 593 348 594 406 594 347 594 347 595 406 595 402 595 347 596 402 596 346 596 346 597 402 597 390 597 346 598 390 598 345 598 345 599 390 599 392 599 345 600 392 600 344 600 344 601 392 601 394 601 344 602 394 602 343 602 343 603 394 603 415 603 343 604 415 604 342 604 342 605 415 605 413 605 342 606 413 606 341 606 341 607 413 607 411 607 341 608 411 608 340 608 340 609 411 609 358 609 548 610 10 610 549 610 549 610 10 610 8 610 549 611 8 611 550 611 550 611 8 611 25 611 550 612 25 612 551 612 551 612 25 612 14 612 551 613 14 613 552 613 552 613 14 613 13 613 552 614 13 614 553 614 553 614 13 614 12 614 553 615 12 615 554 615 554 615 12 615 24 615 554 616 24 616 555 616 555 616 24 616 18 616 555 617 18 617 556 617 556 617 18 617 17 617 556 618 17 618 557 618 557 618 17 618 16 618 557 619 16 619 558 619 558 619 16 619 23 619 558 620 23 620 559 620 559 620 23 620 21 620 559 621 21 621 560 621 560 621 21 621 20 621 560 622 20 622 561 622 561 622 20 622 19 622 561 623 19 623 562 623 562 623 19 623 22 623 562 624 22 624 563 624 563 624 22 624 11 624 563 625 11 625 548 625 548 625 11 625 10 625 548 3 549 3 564 3 564 3 549 3 550 3 564 3 550 3 565 3 565 3 550 3 551 3 565 3 551 3 566 3 566 3 551 3 552 3 566 3 552 3 567 3 567 3 552 3 553 3 567 3 553 3 554 3 567 3 554 3 568 3 568 3 554 3 555 3 568 3 555 3 569 3 569 3 555 3 556 3 569 3 556 3 570 3 570 3 556 3 557 3 570 3 557 3 558 3 570 3 558 3 571 3 571 3 558 3 559 3 571 3 559 3 572 3 572 3 559 3 560 3 572 3 560 3 573 3 573 3 560 3 561 3 573 3 561 3 562 3 573 3 562 3 574 3 574 3 562 3 563 3 574 3 563 3 575 3 575 3 563 3 548 3 575 3 548 3 564 3 576 626 512 626 577 626 577 626 512 626 510 626 577 627 510 627 578 627 578 627 510 627 527 627 578 628 527 628 579 628 579 628 527 628 516 628 579 629 516 629 580 629 580 629 516 629 515 629 580 614 515 614 581 614 581 614 515 614 514 614 581 615 514 615 582 615 582 615 514 615 526 615 582 630 526 630 583 630 583 630 526 630 520 630 583 631 520 631 584 631 584 631 520 631 519 631 584 632 519 632 585 632 585 632 519 632 518 632 585 633 518 633 586 633 586 633 518 633 525 633 586 634 525 634 587 634 587 634 525 634 523 634 587 635 523 635 588 635 588 635 523 635 522 635 588 622 522 622 589 622 589 622 522 622 521 622 589 623 521 623 590 623 590 623 521 623 524 623 590 636 524 636 591 636 591 636 524 636 513 636 591 637 513 637 576 637 576 637 513 637 512 637 576 3 577 3 592 3 592 3 577 3 578 3 592 3 578 3 593 3 593 3 578 3 579 3 593 3 579 3 594 3 594 3 579 3 580 3 594 3 580 3 595 3 595 3 580 3 581 3 595 3 581 3 582 3 595 3 582 3 596 3 596 3 582 3 583 3 596 3 583 3 597 3 597 3 583 3 584 3 597 3 584 3 598 3 598 3 584 3 585 3 598 3 585 3 586 3 598 3 586 3 599 3 599 3 586 3 587 3 599 3 587 3 600 3 600 3 587 3 588 3 600 3 588 3 601 3 601 3 588 3 589 3 601 3 589 3 590 3 601 3 590 3 602 3 602 3 590 3 591 3 602 3 591 3 603 3 603 3 591 3 576 3 603 3 576 3 592 3 604 638 605 638 606 638 606 638 605 638 607 638 606 639 607 639 608 639 608 639 607 639 609 639 608 640 609 640 538 640 538 640 609 640 539 640 605 11 604 11 610 11 610 11 604 11 611 11 612 641 613 641 614 641 614 641 613 641 615 641 614 642 615 642 616 642 616 642 615 642 617 642 616 643 617 643 618 643 618 643 617 643 619 643 618 644 619 644 620 644 620 644 619 644 621 644 620 645 621 645 611 645 611 645 621 645 610 645 593 646 622 646 592 646 592 646 622 646 623 646 592 647 623 647 603 647 603 647 623 647 624 647 603 648 624 648 602 648 602 648 624 648 625 648 602 649 625 649 601 649 601 649 625 649 626 649 601 650 626 650 600 650 600 650 626 650 627 650 600 651 627 651 599 651 599 651 627 651 628 651 599 652 628 652 598 652 598 652 628 652 629 652 598 653 629 653 597 653 597 653 629 653 630 653 597 654 630 654 596 654 596 654 630 654 631 654 596 655 631 655 595 655 595 655 631 655 632 655 595 656 632 656 594 656 594 656 632 656 633 656 594 657 633 657 593 657 593 657 633 657 622 657 565 658 634 658 564 658 564 658 634 658 635 658 564 659 635 659 575 659 575 659 635 659 636 659 575 660 636 660 574 660 574 660 636 660 637 660 574 649 637 649 573 649 573 649 637 649 638 649 573 650 638 650 572 650 572 650 638 650 639 650 572 661 639 661 571 661 571 661 639 661 640 661 571 662 640 662 570 662 570 662 640 662 641 662 570 663 641 663 569 663 569 663 641 663 642 663 569 664 642 664 568 664 568 664 642 664 643 664 568 655 643 655 567 655 567 655 643 655 644 655 567 656 644 656 566 656 566 656 644 656 645 656 566 665 645 665 565 665 565 665 645 665 634 665 646 30 647 30 648 30 648 30 647 30 649 30 648 30 649 30 650 30 651 30 652 30 646 30 646 30 652 30 647 30 653 30 654 30 650 30 650 30 654 30 655 30 650 30 655 30 648 30 648 30 655 30 656 30 656 30 655 30 657 30 656 30 657 30 658 30 654 30 653 30 659 30 659 30 653 30 660 30 659 30 660 30 661 30 661 30 660 30 662 30 661 30 662 30 612 30 612 30 662 30 613 30 656 30 658 30 663 30 663 30 658 30 664 30 663 30 664 30 665 30 631 11 61 11 632 11 632 11 61 11 64 11 632 11 64 11 633 11 633 11 64 11 622 11 622 11 64 11 84 11 622 11 84 11 85 11 631 11 630 11 61 11 61 11 630 11 59 11 59 11 630 11 57 11 57 11 630 11 629 11 57 11 629 11 55 11 55 11 629 11 537 11 55 11 537 11 460 11 629 11 628 11 537 11 537 11 628 11 627 11 537 11 627 11 626 11 537 11 626 11 536 11 536 11 626 11 625 11 536 11 625 11 624 11 624 11 623 11 536 11 536 11 623 11 86 11 536 11 86 11 656 11 656 11 86 11 81 11 656 11 81 11 111 11 111 11 81 11 110 11 110 11 81 11 82 11 110 11 82 11 109 11 109 11 82 11 83 11 109 11 83 11 108 11 108 11 83 11 80 11 108 11 80 11 76 11 86 11 623 11 85 11 85 11 623 11 622 11 643 11 535 11 644 11 644 11 535 11 534 11 644 11 534 11 645 11 645 11 534 11 634 11 634 11 534 11 635 11 635 11 534 11 87 11 635 11 87 11 89 11 643 11 642 11 535 11 535 11 642 11 641 11 535 11 641 11 118 11 118 11 641 11 117 11 117 11 641 11 640 11 117 11 640 11 116 11 116 11 640 11 96 11 96 11 640 11 639 11 96 11 639 11 638 11 96 11 638 11 93 11 93 11 638 11 637 11 93 11 637 11 636 11 635 11 89 11 636 11 636 11 89 11 91 11 636 11 91 11 93 11 535 11 118 11 455 11 455 11 118 11 113 11 455 11 113 11 460 11 460 11 113 11 79 11 460 11 79 11 55 11 113 11 114 11 79 11 79 11 114 11 78 11 78 11 114 11 115 11 78 11 115 11 77 11 77 11 115 11 112 11 77 11 112 11 76 11 76 11 112 11 108 11 656 11 111 11 648 11 648 11 111 11 87 11 648 11 87 11 534 11 537 666 528 666 460 666 460 666 528 666 463 666 463 667 528 667 467 667 467 668 528 668 530 668 467 669 530 669 468 669 468 670 530 670 532 670 468 671 532 671 464 671 464 672 532 672 517 672 464 673 517 673 465 673 465 673 517 673 504 673 465 674 504 674 466 674 466 675 504 675 506 675 466 676 506 676 469 676 469 677 506 677 508 677 469 678 508 678 472 678 472 679 508 679 496 679 472 680 496 680 474 680 445 681 474 681 491 681 491 681 474 681 496 681 488 682 436 682 500 682 500 683 436 683 437 683 500 684 437 684 501 684 501 684 437 684 439 684 501 685 439 685 502 685 502 686 439 686 441 686 502 687 441 687 503 687 503 688 441 688 443 688 503 689 443 689 491 689 491 690 443 690 445 690 433 691 436 691 485 691 485 691 436 691 488 691 482 692 357 692 498 692 498 693 357 693 429 693 498 694 429 694 499 694 499 695 429 695 431 695 499 696 431 696 485 696 485 697 431 697 433 697 361 698 357 698 475 698 475 698 357 698 482 698 361 699 475 699 380 699 380 700 475 700 477 700 380 701 477 701 381 701 381 702 477 702 479 702 381 703 479 703 377 703 377 704 479 704 454 704 377 705 454 705 354 705 354 705 454 705 447 705 354 706 447 706 388 706 388 707 447 707 449 707 388 708 449 708 389 708 389 709 449 709 451 709 389 710 451 710 352 710 352 711 451 711 47 711 47 712 44 712 352 712 352 712 44 712 350 712 41 713 434 713 53 713 53 714 434 714 432 714 53 715 432 715 54 715 54 716 432 716 430 716 54 717 430 717 44 717 44 718 430 718 350 718 41 719 38 719 434 719 434 719 38 719 435 719 33 720 446 720 49 720 49 721 446 721 444 721 49 722 444 722 50 722 50 723 444 723 442 723 50 724 442 724 51 724 51 725 442 725 440 725 51 726 440 726 52 726 52 726 440 726 438 726 52 727 438 727 38 727 38 728 438 728 435 728 33 729 26 729 446 729 446 729 26 729 473 729 473 730 26 730 471 730 471 731 26 731 28 731 471 732 28 732 470 732 470 733 28 733 30 733 470 734 30 734 461 734 461 735 30 735 15 735 461 736 15 736 462 736 462 673 15 673 456 673 456 673 15 673 0 673 456 737 0 737 458 737 458 738 0 738 2 738 458 739 2 739 459 739 459 740 2 740 4 740 459 741 4 741 457 741 457 742 4 742 6 742 455 743 457 743 535 743 535 743 457 743 6 743 656 744 663 744 536 744 536 744 663 744 529 744 658 745 511 745 664 745 664 746 511 746 533 746 664 747 533 747 665 747 665 748 533 748 531 748 665 749 531 749 663 749 663 750 531 750 529 750 657 751 505 751 658 751 658 751 505 751 511 751 661 752 497 752 659 752 659 753 497 753 509 753 659 754 509 754 654 754 654 755 509 755 507 755 654 756 507 756 655 756 655 757 507 757 505 757 655 758 505 758 657 758 495 759 497 759 612 759 612 759 497 759 661 759 495 760 612 760 494 760 494 761 612 761 614 761 494 762 614 762 493 762 493 763 614 763 616 763 493 764 616 764 492 764 492 765 616 765 618 765 492 766 618 766 490 766 490 767 618 767 620 767 490 768 620 768 489 768 489 769 620 769 611 769 489 770 611 770 487 770 486 771 487 771 604 771 604 771 487 771 611 771 486 772 604 772 484 772 484 773 604 773 606 773 484 774 606 774 483 774 483 775 606 775 608 775 483 776 608 776 481 776 481 777 608 777 538 777 476 778 481 778 545 778 545 778 481 778 538 778 540 779 453 779 546 779 546 780 453 780 480 780 546 781 480 781 547 781 547 782 480 782 478 782 547 783 478 783 545 783 545 784 478 784 476 784 541 785 448 785 540 785 540 785 448 785 453 785 542 786 48 786 544 786 544 787 48 787 452 787 544 788 452 788 543 788 543 789 452 789 450 789 543 790 450 790 541 790 541 791 450 791 448 791 542 792 539 792 48 792 48 792 539 792 46 792 46 793 539 793 45 793 45 794 539 794 609 794 45 795 609 795 43 795 43 796 609 796 607 796 43 797 607 797 42 797 42 798 607 798 605 798 605 799 610 799 42 799 42 799 610 799 40 799 40 800 610 800 39 800 39 801 610 801 621 801 39 802 621 802 37 802 37 803 621 803 619 803 37 804 619 804 36 804 36 805 619 805 617 805 36 806 617 806 35 806 35 807 617 807 615 807 35 808 615 808 34 808 34 809 615 809 613 809 34 810 613 810 32 810 613 811 662 811 32 811 32 811 662 811 27 811 649 812 9 812 650 812 650 813 9 813 31 813 650 814 31 814 653 814 653 815 31 815 29 815 653 816 29 816 660 816 660 817 29 817 27 817 660 818 27 818 662 818 647 751 1 751 649 751 649 751 1 751 9 751 646 819 7 819 651 819 651 820 7 820 5 820 651 821 5 821 652 821 652 822 5 822 3 822 652 823 3 823 647 823 647 824 3 824 1 824 534 825 7 825 648 825 648 825 7 825 646 825</p>
        </triangles>
      </mesh>
    </geometry>
  </library_geometries>
  <library_visual_scenes>
    <visual_scene id="DefaultScene">
      <node id="node_b3ddfd54_012f_452e_aa43_035ef4e0bb4d" type="NODE">
        <matrix>1 0 0 0 0 1 0 0 0 0 1 0 0 0 0 1</matrix>
        <node id="node_e950bfd0_d255_4c4e_9722_4195e02c33a5" type="NODE">
          <matrix>1 0 0 0 0 1 0 0 0 0 1 0 0 0 0 1</matrix>
          <node id="node_e950bfd0_d255_4c4e_9722_4195e02c33a5_mesh0" type="NODE">
            <matrix>1 0 0 0 0 1 0 0 0 0 1 0 0 0 0 1</matrix>
            <instance_geometry url="#geometry_f977c246_663e_4526_b805_3a3af2b47479">
              <bind_material>
                <technique_common>
                  <instance_material symbol="mat_0" target="#mat_0"/>
                </technique_common>
              </bind_material>
            </instance_geometry>
          </node>
        </node>
      </node>
    </visual_scene>
  </library_visual_scenes>
  <scene>
    <instance_visual_scene url="#DefaultScene"/>
  </scene>
</COLLADA>
